<svg width="40" height="40" viewBox="0 0 40 40" fill="none" xmlns="http://www.w3.org/2000/svg">
<path d="M5 2.5C4.33696 2.5 3.70107 2.76339 3.23223 3.23223C2.76339 3.70107 2.5 4.33696 2.5 5V25C2.5 25.663 2.76339 26.2989 3.23223 26.7678C3.70107 27.2366 4.33696 27.5 5 27.5H28.965C30.291 27.5003 31.5625 28.0273 32.5 28.965L37.5 33.965V5C37.5 4.33696 37.2366 3.70107 36.7678 3.23223C36.2989 2.76339 35.663 2.5 35 2.5H5ZM35 0C36.3261 0 37.5979 0.526784 38.5355 1.46447C39.4732 2.40215 40 3.67392 40 5V36.9825C39.9999 37.2298 39.9265 37.4716 39.789 37.6772C39.6515 37.8828 39.4561 38.043 39.2275 38.1374C38.9989 38.2319 38.7474 38.2565 38.5049 38.208C38.2624 38.1595 38.0397 38.0401 37.865 37.865L30.7325 30.7325C30.2638 30.2636 29.628 30.0001 28.965 30H5C3.67392 30 2.40215 29.4732 1.46447 28.5355C0.526784 27.5979 0 26.3261 0 25V5C0 3.67392 0.526784 2.40215 1.46447 1.46447C2.40215 0.526784 3.67392 0 5 0L35 0Z" fill="black"/>
<path d="M7.5 8.75C7.5 8.41848 7.6317 8.10054 7.86612 7.86612C8.10054 7.6317 8.41848 7.5 8.75 7.5H31.25C31.5815 7.5 31.8995 7.6317 32.1339 7.86612C32.3683 8.10054 32.5 8.41848 32.5 8.75C32.5 9.08152 32.3683 9.39946 32.1339 9.63388C31.8995 9.8683 31.5815 10 31.25 10H8.75C8.41848 10 8.10054 9.8683 7.86612 9.63388C7.6317 9.39946 7.5 9.08152 7.5 8.75ZM7.5 15C7.5 14.6685 7.6317 14.3505 7.86612 14.1161C8.10054 13.8817 8.41848 13.75 8.75 13.75H31.25C31.5815 13.75 31.8995 13.8817 32.1339 14.1161C32.3683 14.3505 32.5 14.6685 32.5 15C32.5 15.3315 32.3683 15.6495 32.1339 15.8839C31.8995 16.1183 31.5815 16.25 31.25 16.25H8.75C8.41848 16.25 8.10054 16.1183 7.86612 15.8839C7.6317 15.6495 7.5 15.3315 7.5 15ZM7.5 21.25C7.5 20.9185 7.6317 20.6005 7.86612 20.3661C8.10054 20.1317 8.41848 20 8.75 20H21.25C21.5815 20 21.8995 20.1317 22.1339 20.3661C22.3683 20.6005 22.5 20.9185 22.5 21.25C22.5 21.5815 22.3683 21.8995 22.1339 22.1339C21.8995 22.3683 21.5815 22.5 21.25 22.5H8.75C8.41848 22.5 8.10054 22.3683 7.86612 22.1339C7.6317 21.8995 7.5 21.5815 7.5 21.25Z" fill="black"/>
</svg>
