<svg width="40" height="50" viewBox="0 0 40 50" fill="none" xmlns="http://www.w3.org/2000/svg">
<path d="M20 0C14.5725 0 13.89 0.03125 11.7575 0.15C9.625 0.275 8.1725 0.69375 6.9 1.3125C5.56461 1.93852 4.35535 2.92312 3.3575 4.19688C2.3385 5.44419 1.55081 6.95576 1.05 8.625C0.555 10.2125 0.2175 12.0312 0.12 14.6875C0.025 17.3594 0 18.2094 0 25.0031C0 31.7906 0.025 32.6406 0.12 35.3063C0.22 37.9688 0.555 39.7844 1.05 41.375C1.5625 43.0187 2.245 44.4125 3.3575 45.8031C4.4675 47.1937 5.5825 48.05 6.8975 48.6875C8.1725 49.3062 9.6225 49.7281 11.7525 49.85C13.8875 49.9687 14.5675 50 20 50C25.4325 50 26.11 49.9687 28.245 49.85C30.3725 49.725 31.83 49.3062 33.1025 48.6875C34.437 48.0611 35.6454 47.0765 36.6425 45.8031C37.755 44.4125 38.4375 43.0187 38.95 41.375C39.4425 39.7844 39.78 37.9688 39.88 35.3063C39.975 32.6406 40 31.7906 40 25C40 18.2094 39.975 17.3594 39.88 14.6906C39.78 12.0313 39.4425 10.2125 38.95 8.625C38.4492 6.95576 37.6615 5.44419 36.6425 4.19688C35.6446 2.92312 34.4354 1.93852 33.1 1.3125C31.825 0.69375 30.37 0.271875 28.2425 0.15C26.1075 0.03125 25.43 0 19.995 0H20ZM18.2075 4.50625H20.0025C25.3425 4.50625 25.975 4.52813 28.0825 4.65C30.0325 4.75938 31.0925 5.16875 31.7975 5.50938C32.73 5.9625 33.3975 6.50625 34.0975 7.38125C34.7975 8.25625 35.23 9.0875 35.5925 10.2563C35.8675 11.1344 36.1925 12.4594 36.28 14.8969C36.3775 17.5313 36.3975 18.3219 36.3975 24.9938C36.3975 31.6656 36.3775 32.4594 36.28 35.0937C36.1925 37.5312 35.865 38.8531 35.5925 39.7344C35.2696 40.8184 34.7581 41.7993 34.095 42.6062C33.395 43.4812 32.73 44.0219 31.795 44.475C31.095 44.8188 30.035 45.225 28.0825 45.3375C25.975 45.4563 25.3425 45.4844 20.0025 45.4844C14.6625 45.4844 14.0275 45.4563 11.92 45.3375C9.97 45.225 8.9125 44.8188 8.2075 44.475C7.33958 44.0727 6.554 43.4344 5.9075 42.6062C5.24318 41.7988 4.73082 40.8167 4.4075 39.7312C4.135 38.8531 3.8075 37.5281 3.72 35.0906C3.625 32.4563 3.605 31.6656 3.605 24.9875C3.605 18.3094 3.625 17.525 3.72 14.8906C3.81 12.4531 4.135 11.1281 4.41 10.2469C4.7725 9.08125 5.2075 8.24687 5.9075 7.37187C6.6075 6.49687 7.2725 5.95625 8.2075 5.50313C8.9125 5.15938 9.97 4.75313 11.92 4.64063C13.765 4.53438 14.48 4.50313 18.2075 4.5V4.50625ZM30.6775 8.65625C30.3623 8.65625 30.0502 8.73385 29.7591 8.88461C29.4679 9.03538 29.2033 9.25635 28.9804 9.53493C28.7576 9.81351 28.5808 10.1442 28.4602 10.5082C28.3396 10.8722 28.2775 11.2623 28.2775 11.6563C28.2775 12.0502 28.3396 12.4403 28.4602 12.8043C28.5808 13.1683 28.7576 13.499 28.9804 13.7776C29.2033 14.0561 29.4679 14.2771 29.7591 14.4279C30.0502 14.5787 30.3623 14.6563 30.6775 14.6563C31.314 14.6563 31.9245 14.3402 32.3746 13.7776C32.8246 13.215 33.0775 12.4519 33.0775 11.6563C33.0775 10.8606 32.8246 10.0975 32.3746 9.53493C31.9245 8.97232 31.314 8.65625 30.6775 8.65625ZM20.0025 12.1625C18.6402 12.1359 17.2872 12.4484 16.0224 13.0817C14.7577 13.715 13.6063 14.6565 12.6354 15.8513C11.6645 17.0462 10.8934 18.4705 10.3671 20.0414C9.8408 21.6124 9.56975 23.2985 9.56975 25.0016C9.56975 26.7047 9.8408 28.3908 10.3671 29.9617C10.8934 31.5326 11.6645 32.9569 12.6354 34.1518C13.6063 35.3467 14.7577 36.2881 16.0224 36.9214C17.2872 37.5547 18.6402 37.8672 20.0025 37.8406C22.6989 37.788 25.2705 36.4122 27.1624 34.0102C29.0544 31.6081 30.1148 28.3724 30.1148 25.0016C30.1148 21.6307 29.0544 18.395 27.1624 15.993C25.2705 13.5909 22.6989 12.2151 20.0025 12.1625ZM20.0025 16.6656C20.8781 16.6656 21.7451 16.8812 22.554 17.3C23.363 17.7189 24.098 18.3328 24.7171 19.1067C25.3363 19.8806 25.8274 20.7994 26.1625 21.8106C26.4975 22.8217 26.67 23.9055 26.67 25C26.67 26.0945 26.4975 27.1783 26.1625 28.1894C25.8274 29.2006 25.3363 30.1194 24.7171 30.8933C24.098 31.6672 23.363 32.2811 22.554 32.7C21.7451 33.1188 20.8781 33.3344 20.0025 33.3344C18.2342 33.3344 16.5383 32.4563 15.2879 30.8933C14.0375 29.3303 13.335 27.2104 13.335 25C13.335 22.7896 14.0375 20.6697 15.2879 19.1067C16.5383 17.5437 18.2342 16.6656 20.0025 16.6656Z" fill="white"/>
</svg>
