<svg width="47" height="38" viewBox="0 0 47 38" fill="none" xmlns="http://www.w3.org/2000/svg">
<path d="M0 29.9375C0 29.5231 0.16462 29.1257 0.457646 28.8326C0.750671 28.5396 1.1481 28.375 1.5625 28.375H7.8125C8.2269 28.375 8.62433 28.5396 8.91735 28.8326C9.21038 29.1257 9.375 29.5231 9.375 29.9375V36.1875C9.375 36.6019 9.21038 36.9993 8.91735 37.2924C8.62433 37.5854 8.2269 37.75 7.8125 37.75H1.5625C1.1481 37.75 0.750671 37.5854 0.457646 37.2924C0.16462 36.9993 0 36.6019 0 36.1875V29.9375ZM12.5 20.5625C12.5 20.1481 12.6646 19.7507 12.9576 19.4576C13.2507 19.1646 13.6481 19 14.0625 19H20.3125C20.7269 19 21.1243 19.1646 21.4174 19.4576C21.7104 19.7507 21.875 20.1481 21.875 20.5625V36.1875C21.875 36.6019 21.7104 36.9993 21.4174 37.2924C21.1243 37.5854 20.7269 37.75 20.3125 37.75H14.0625C13.6481 37.75 13.2507 37.5854 12.9576 37.2924C12.6646 36.9993 12.5 36.6019 12.5 36.1875V20.5625ZM25 11.1875C25 10.7731 25.1646 10.3757 25.4576 10.0826C25.7507 9.78962 26.1481 9.625 26.5625 9.625H32.8125C33.2269 9.625 33.6243 9.78962 33.9174 10.0826C34.2104 10.3757 34.375 10.7731 34.375 11.1875V36.1875C34.375 36.6019 34.2104 36.9993 33.9174 37.2924C33.6243 37.5854 33.2269 37.75 32.8125 37.75H26.5625C26.1481 37.75 25.7507 37.5854 25.4576 37.2924C25.1646 36.9993 25 36.6019 25 36.1875V11.1875ZM37.5 1.8125C37.5 1.3981 37.6646 1.00067 37.9576 0.707646C38.2507 0.41462 38.6481 0.25 39.0625 0.25H45.3125C45.7269 0.25 46.1243 0.41462 46.4174 0.707646C46.7104 1.00067 46.875 1.3981 46.875 1.8125V36.1875C46.875 36.6019 46.7104 36.9993 46.4174 37.2924C46.1243 37.5854 45.7269 37.75 45.3125 37.75H39.0625C38.6481 37.75 38.2507 37.5854 37.9576 37.2924C37.6646 36.9993 37.5 36.6019 37.5 36.1875V1.8125Z" fill="white" fill-opacity="0.3"/>
</svg>
