<svg width="55" height="61" viewBox="0 0 55 61" fill="none" xmlns="http://www.w3.org/2000/svg">
<path d="M54.8769 2.58962C55.0019 2.24651 55.0325 1.87065 54.9649 1.50862C54.8973 1.14658 54.7345 0.81431 54.4966 0.552986C54.2587 0.291661 53.9562 0.112778 53.6267 0.038513C53.2971 -0.0357517 52.955 -0.00213191 52.6426 0.135204L2.63905 22.1078H2.63561L1.08191 22.7875C0.787641 22.9165 0.53154 23.1323 0.3419 23.4111C0.152261 23.6899 0.0364629 24.0208 0.00729831 24.3674C-0.0218663 24.7139 0.0367374 25.0626 0.176636 25.3749C0.316534 25.6871 0.532283 25.9508 0.80005 26.1369L2.20938 27.1186L2.21281 27.1262L19.3825 39.1264L30.3065 57.9876L30.3134 57.9951L31.2071 59.5433C31.377 59.8363 31.6172 60.0721 31.9012 60.2248C32.1853 60.3776 32.5022 60.4412 32.8171 60.4088C33.1319 60.3764 33.4325 60.2492 33.6858 60.0412C33.9391 59.8332 34.1352 59.5524 34.2526 59.2299L54.8769 2.58962ZM48.5762 9.72629L22.8165 38.0238L22.0774 36.7475C21.942 36.5133 21.7613 36.3147 21.5481 36.166L20.3862 35.3541L46.146 7.05664L50.1952 5.27814L48.5762 9.72629Z" fill="white"/>
</svg>
