<svg width="40" height="40" viewBox="0 0 40 40" fill="none" xmlns="http://www.w3.org/2000/svg">
<path d="M22.8571 0H28.5143C28.9257 1.7875 30.0571 4.0425 32.0429 6.28C33.9857 8.4725 36.5629 10 40 10V15C34.9914 15 31.2286 12.965 28.5714 10.4275V27.5C28.5714 29.9723 27.7336 32.389 26.1639 34.4446C24.5941 36.5002 22.363 38.1024 19.7526 39.0485C17.1423 39.9946 14.2699 40.2421 11.4987 39.7598C8.72756 39.2775 6.18209 38.087 4.18419 36.3388C2.1863 34.5907 0.82572 32.3634 0.274502 29.9386C-0.276715 27.5139 0.00618977 25.0005 1.08744 22.7165C2.16869 20.4324 3.99973 18.4801 6.349 17.1066C8.69828 15.7331 11.4603 15 14.2857 15V20C12.5905 20 10.9333 20.4399 9.52369 21.264C8.11412 22.0881 7.0155 23.2594 6.36675 24.6299C5.718 26.0003 5.54826 27.5083 5.87899 28.9632C6.20972 30.418 7.02607 31.7544 8.2248 32.8033C9.42354 33.8522 10.9508 34.5665 12.6135 34.8559C14.2762 35.1453 15.9996 34.9968 17.5659 34.4291C19.1321 33.8614 20.4708 32.9001 21.4126 31.6668C22.3544 30.4334 22.8571 28.9834 22.8571 27.5V0Z" fill="white"/>
</svg>
