<svg width="40" height="40" viewBox="0 0 40 40" fill="none" xmlns="http://www.w3.org/2000/svg">
<path d="M12.565 40C27.66 40 35.9175 24.607 35.9175 11.2815C35.9208 10.8487 35.9158 10.4159 35.9025 9.98314C37.5096 8.55012 38.897 6.777 40 4.74649C38.4978 5.5596 36.9066 6.09659 35.2775 6.34026C36.994 5.07788 38.2795 3.09124 38.895 0.749785C37.2832 1.92732 35.518 2.75279 33.6775 3.18965C32.4405 1.56828 30.8035 0.494161 29.0202 0.133687C27.2369 -0.226787 25.4068 0.146499 23.8133 1.19572C22.2199 2.24495 20.952 3.91155 20.2061 5.93739C19.4602 7.96322 19.2779 10.2352 19.6875 12.4015C16.4242 12.2011 13.2316 11.1582 10.3171 9.3406C7.40253 7.52302 4.83118 4.97134 2.77 1.85126C1.72395 4.0762 1.40488 6.70757 1.87752 9.21143C2.35016 11.7153 3.57911 13.9041 5.315 15.3336C4.01352 15.2819 2.74048 14.8517 1.6 14.0783V14.2168C1.60318 16.547 2.25955 18.8046 3.45831 20.6084C4.65707 22.4122 6.3248 23.6517 8.18 24.1178C7.47568 24.3567 6.74808 24.4757 6.0175 24.4716C5.5023 24.4782 4.98791 24.4194 4.4825 24.2962C5.00598 26.3032 6.02694 28.058 7.40209 29.3145C8.77724 30.571 10.4375 31.266 12.15 31.302C9.24026 34.111 5.64811 35.6355 1.95 35.631C1.29825 35.637 0.646866 35.5908 0 35.4925C3.75355 38.4384 8.11317 40.0024 12.565 40Z" fill="white"/>
</svg>
