<svg width="30" height="30" viewBox="0 0 30 30" fill="none" xmlns="http://www.w3.org/2000/svg">
<path d="M0.36654 2.13635C0.250333 2.02015 0.158152 1.88219 0.0952609 1.73036C0.0323697 1.57852 1.22445e-09 1.41579 0 1.25145C-1.22445e-09 1.0871 0.0323697 0.924372 0.0952609 0.772539C0.158152 0.620707 0.250333 0.482748 0.36654 0.36654C0.482748 0.250333 0.620707 0.158152 0.772539 0.0952609C0.924372 0.0323697 1.0871 -1.22445e-09 1.25145 0C1.41579 1.22445e-09 1.57852 0.0323697 1.73036 0.0952609C1.88219 0.158152 2.02015 0.250333 2.13635 0.36654L15 13.2327L27.8636 0.36654C27.9799 0.250333 28.1178 0.158152 28.2696 0.0952609C28.4215 0.0323697 28.5842 0 28.7486 0C28.9129 0 29.0756 0.0323697 29.2275 0.0952609C29.3793 0.158152 29.5173 0.250333 29.6335 0.36654C29.7497 0.482748 29.8419 0.620707 29.9047 0.772539C29.9676 0.924372 30 1.0871 30 1.25145C30 1.41579 29.9676 1.57852 29.9047 1.73036C29.8419 1.88219 29.7497 2.02015 29.6335 2.13635L16.7673 15L29.6335 27.8636C29.7497 27.9799 29.8419 28.1178 29.9047 28.2696C29.9676 28.4215 30 28.5842 30 28.7486C30 28.9129 29.9676 29.0756 29.9047 29.2275C29.8419 29.3793 29.7497 29.5173 29.6335 29.6335C29.5173 29.7497 29.3793 29.8419 29.2275 29.9047C29.0756 29.9676 28.9129 30 28.7486 30C28.5842 30 28.4215 29.9676 28.2696 29.9047C28.1178 29.8419 27.9799 29.7497 27.8636 29.6335L15 16.7673L2.13635 29.6335C2.02015 29.7497 1.88219 29.8419 1.73036 29.9047C1.57852 29.9676 1.41579 30 1.25145 30C1.0871 30 0.924372 29.9676 0.772539 29.9047C0.620707 29.8419 0.482748 29.7497 0.36654 29.6335C0.250333 29.5173 0.158152 29.3793 0.0952609 29.2275C0.0323697 29.0756 0 28.9129 0 28.7486C0 28.5842 0.0323697 28.4215 0.0952609 28.2696C0.158152 28.1178 0.250333 27.9799 0.36654 27.8636L13.2327 15L0.36654 2.13635Z" fill="black"/>
</svg>
